<svg width="120" height="120" viewBox="0 0 120 120" fill="none" xmlns="http://www.w3.org/2000/svg">
<rect width="120" height="120" rx="36" fill="#373430"/>
<mask id="mask0_218_12530" style="mask-type:alpha" maskUnits="userSpaceOnUse" x="17" y="42" width="83" height="36">
<rect x="17.7551" y="42.8571" width="81.4286" height="34.898" fill="#D9D9D9"/>
</mask>
<g mask="url(#mask0_218_12530)">
<path d="M67.5617 50.1371C65.6765 46.8718 60.9634 46.8718 59.0782 50.1371L48.2087 68.9637C46.3234 72.229 48.68 76.3106 52.4504 76.3106L71.1158 76.3106C71.1174 76.3106 71.1189 76.3106 71.1204 76.3106H92.8594C96.6299 76.3106 98.9864 72.229 97.1012 68.9636L86.2317 50.1371C84.3465 46.8718 79.6334 46.8718 77.7482 50.1371L74.7758 55.2854C73.8332 56.918 71.4767 56.918 70.534 55.2854L67.5617 50.1371Z" fill="white"/>
<path d="M39.4457 70.4082C37.5605 73.6735 32.8474 73.6735 30.9622 70.4082L20.0927 51.5816C18.2075 48.3163 20.564 44.2347 24.3345 44.2347L46.0735 44.2347C49.8439 44.2347 52.2005 48.3163 50.3152 51.5817L39.4457 70.4082Z" fill="white"/>
</g>
</svg>
